<svg xmlns="http://www.w3.org/2000/svg" width="400" height="76" viewBox="0 0 400 76" fill="none"><g clip-path="url(#clip0_34_832)"><path d="M180.878 0.00827H145.339C140.46 0.00827 135.927 3.58947 135.224 8.006L125.647 67.4804C124.936 71.8969 128.31 75.4698 133.19 75.4698H168.721C173.6 75.4698 178.124 71.8969 178.836 67.4804L181.565 50.542C181.59 50.4088 181.584 50.2717 181.549 50.1409C181.514 50.01 181.45 49.8886 181.362 49.7856C181.274 49.6825 181.164 49.6004 181.041 49.5453C180.917 49.4901 180.782 49.4633 180.647 49.4668H164.957C164.354 49.4668 163.783 49.9465 163.684 50.542L162.435 58.3413C162.203 59.7638 160.748 60.9217 159.168 60.9217H147.424C145.852 60.9217 144.769 59.7638 144.992 58.3413L151.633 17.1285C151.857 15.706 153.321 14.5564 154.892 14.5564H166.636C168.208 14.5564 169.3 15.706 169.068 17.1285L167.827 24.9361C167.803 25.0686 167.808 25.2049 167.843 25.3352C167.877 25.4654 167.94 25.5864 168.027 25.6893C168.114 25.7921 168.223 25.8744 168.346 25.9301C168.469 25.9858 168.602 26.0135 168.737 26.0112H184.435C184.737 26.0034 185.027 25.8924 185.257 25.6968C185.487 25.5012 185.644 25.2328 185.7 24.9361L188.413 7.99773C189.124 3.5812 185.75 0 180.878 0V0.00827ZM116.905 0.01657H87.7342C82.8545 0.01657 77.7102 3.5895 76.2215 8.00603L53.9072 74.436C53.717 75.0149 54.0478 75.4781 54.6516 75.4781H70.341C70.9448 75.4781 71.5982 75.0067 71.7884 74.436L79.3147 52.0059C79.4298 51.7119 79.6279 51.4576 79.8849 51.2741C80.1418 51.0906 80.4466 50.9856 80.7621 50.9721H98.5605C99.1643 50.9721 99.5778 51.4518 99.4786 52.0473L95.8808 74.3946C95.856 74.5286 95.8615 74.6664 95.8971 74.7979C95.9326 74.9294 95.9972 75.0512 96.0861 75.1544C96.175 75.2576 96.286 75.3395 96.4108 75.3941C96.5356 75.4487 96.671 75.4746 96.8072 75.4698H112.497C113.092 75.4698 113.663 74.9901 113.762 74.3946L124.448 8.006C125.159 3.58947 121.785 0.01657 116.905 0.01657ZM105.103 17.1368L102.167 35.3323C102.076 35.9361 101.505 36.4158 100.901 36.4158H85.65C85.0463 36.4158 84.7154 35.9526 84.9057 35.3819L91.0342 17.1368C91.3371 16.3942 91.8494 15.7556 92.5087 15.2989C93.1681 14.8422 93.946 14.5871 94.7478 14.5647H102.671C104.242 14.5647 105.326 15.7143 105.103 17.1368ZM242.569 16.7647L245.1 1.09176C245.125 0.95853 245.119 0.821473 245.084 0.690596C245.049 0.559719 244.985 0.438326 244.898 0.335285C244.81 0.232243 244.7 0.150154 244.576 0.095013C244.452 0.0398722 244.318 0.0130721 244.182 0.01657H197.56C196.957 0.01657 196.386 0.496268 196.295 1.09176L193.764 16.7647C193.738 16.8985 193.742 17.0365 193.777 17.1684C193.811 17.3003 193.875 17.4228 193.963 17.5268C194.051 17.6308 194.162 17.7137 194.286 17.7693C194.411 17.825 194.546 17.8519 194.682 17.8481H207.675C208.279 17.8481 208.693 18.3361 208.593 18.9233L199.669 74.3947C199.645 74.5286 199.65 74.6664 199.686 74.7979C199.721 74.9294 199.786 75.0513 199.875 75.1544C199.964 75.2576 200.075 75.3396 200.199 75.3941C200.324 75.4487 200.46 75.4746 200.596 75.4698H216.285C216.881 75.4698 217.451 74.9901 217.551 74.3947L226.475 18.9316C226.574 18.3361 227.136 17.8481 227.74 17.8481H241.304C241.899 17.8481 242.47 17.3602 242.569 16.7729V16.7647ZM325.036 0.008299H289.497C284.617 0.008299 280.093 3.55641 279.39 7.91505L269.813 66.7443C269.102 71.1112 272.476 74.651 277.348 74.651H312.895C317.775 74.651 322.299 71.1112 323.01 66.7443L332.579 7.91503C333.29 3.55639 329.916 0.016541 325.044 0.016541L325.036 0.008299ZM313.234 16.9466L306.601 57.7127C306.369 59.1187 304.914 60.2601 303.342 60.2601H291.598C290.018 60.2601 288.935 59.1187 289.158 57.7127L295.791 16.9466C296.023 15.5406 297.487 14.3993 299.058 14.3993H310.802C312.374 14.3993 313.457 15.5406 313.234 16.9466ZM399.067 0.01657H383.377C382.774 0.01657 382.203 0.504539 382.112 1.09176L376.546 35.6383C376.455 36.2338 376.141 36.2834 375.859 35.7541L357.333 0.984209C357.164 0.703611 356.928 0.468739 356.647 0.300073C356.366 0.131407 356.048 0.0340676 355.72 0.016541H345.754C345.452 0.0244191 345.162 0.135368 344.932 0.330956C344.702 0.526544 344.545 0.795 344.489 1.09173L332.686 74.3946C332.662 74.5286 332.667 74.6664 332.703 74.7979C332.738 74.9294 332.803 75.0512 332.892 75.1544C332.981 75.2576 333.092 75.3395 333.216 75.3941C333.341 75.4487 333.477 75.4746 333.613 75.4698H349.302C349.906 75.4698 350.477 74.9901 350.568 74.3946L356.126 39.8563C356.225 39.2608 356.539 39.2112 356.82 39.7405L375.347 74.5104C375.516 74.791 375.752 75.0259 376.033 75.1946C376.314 75.3632 376.632 75.4606 376.959 75.4781H386.926C387.229 75.4698 387.52 75.3577 387.75 75.1605C387.98 74.9632 388.136 74.6929 388.191 74.3946L399.985 1.09173C400.009 0.9592 400.004 0.822879 399.97 0.692619C399.935 0.562359 399.872 0.441415 399.785 0.338528C399.698 0.23564 399.589 0.153381 399.466 0.0976962C399.343 0.0420112 399.21 0.0142916 399.075 0.016541L399.067 0.01657ZM268.82 0.01657H253.131C252.527 0.01657 251.957 0.504539 251.857 1.09176L240.063 74.3947C240.039 74.5272 240.044 74.6635 240.079 74.7938C240.113 74.924 240.176 75.045 240.263 75.1479C240.35 75.2507 240.459 75.333 240.582 75.3887C240.705 75.4444 240.838 75.4721 240.973 75.4698H256.671C256.973 75.462 257.263 75.351 257.493 75.1554C257.723 74.9598 257.88 74.6914 257.936 74.3947L269.738 1.09176C269.763 0.95853 269.758 0.821473 269.723 0.690596C269.688 0.559719 269.624 0.438326 269.536 0.335285C269.448 0.232243 269.338 0.150154 269.214 0.095013C269.09 0.0398722 268.956 0.0130721 268.82 0.01657Z" fill="white"></path><path d="M58.456 0.0078125H67.0409C67.6447 0.0078125 67.9755 0.470969 67.7853 1.04165L43.1387 74.4273C43.0249 74.7228 42.8273 74.9788 42.5703 75.1639C42.3132 75.349 42.0078 75.4552 41.6913 75.4694H33.1064C32.5109 75.4694 32.1718 74.9979 32.362 74.4273L57.0169 1.04165C57.132 0.747601 57.3301 0.493345 57.5871 0.309804C57.844 0.126262 58.1488 0.0213447 58.4643 0.0078125H58.456ZM40.5086 0.0078125H45.5041C46.0996 0.0078125 46.4387 0.470969 46.2485 1.04165L21.5854 74.4273C21.4721 74.7216 21.2758 74.9768 21.0204 75.1617C20.7649 75.3467 20.4613 75.4536 20.1463 75.4694H15.1508C14.547 75.4694 14.2162 74.9979 14.4064 74.4273L39.053 1.04165C39.1692 0.745094 39.3699 0.489119 39.63 0.305376C39.8902 0.121632 40.1986 0.01818 40.5169 0.0078125H40.5086ZM28.2929 1.04165C28.4914 0.470969 28.1523 0.0078125 27.5485 0.0078125H26.0184C25.2741 0.0078125 24.9432 0.388264 24.7034 1.04165L0.0568189 74.4273C-0.141677 75.0062 0.19742 75.4694 0.801179 75.4694H2.33952C3.05907 75.4694 3.41471 75.1303 3.64629 74.4273L28.2846 1.04165H28.2929Z" fill="white"></path></g><defs><clipPath id="clip0_34_832"><rect width="400" height="75.4781" fill="white"></rect></clipPath></defs></svg>