<svg xmlns="http://www.w3.org/2000/svg" width="72" height="30" viewBox="0 0 72 30" fill="none"><path d="M57.0718 0C57.0718 0 56.8294 0.781972 56.7812 0.893422C55.4889 3.89464 53.9036 6.48477 51.4003 8.58891C49.0193 10.5907 46.2255 12.0792 43.2695 13.0049C38.8746 14.3812 34.1495 14.5359 29.6118 13.7643C27.6576 13.4318 25.7258 12.9111 23.7457 12.7174C22.8698 12.6315 21.9862 12.6078 21.1079 12.6778C20.2815 12.7436 18.5938 13.1273 18.5938 13.1273C18.7909 12.7174 19.2158 12.4166 19.5835 12.1522C23.1573 9.58708 28.3237 10.299 32.472 10.1833C36.4678 10.0719 40.4575 9.5006 44.2972 8.37819C46.8511 7.63154 49.3526 6.61144 51.6022 5.16626C52.7312 4.44092 53.7963 3.6084 54.7451 2.65408C55.1152 2.28197 57.0706 0 57.0706 0L57.0718 0Z" fill="black"></path><path d="M43.6308 26.0058L43.6754 17.007C43.7013 16.9516 43.7297 16.9017 43.7917 16.881C43.8972 16.8456 45.4934 16.842 45.6489 16.8724C45.8122 16.9041 45.8894 17.0551 45.9177 17.2098L45.9237 29.5107C45.8936 29.7427 45.9183 29.9358 45.6537 29.9686C45.2637 30.0168 44.3656 30.0015 43.9605 29.9674C43.7851 29.9528 43.5898 29.9303 43.4463 29.817L36.6115 20.7665C36.538 20.7068 36.3077 20.6331 36.3372 20.7981C36.3668 23.5801 36.2999 26.3645 36.3348 29.1459C36.3385 29.4431 36.5398 29.8858 36.0624 29.9613C35.7152 30.0162 34.808 29.9985 34.4361 29.968C34.3258 29.9589 34.2149 29.9589 34.1215 29.8901L34.1016 16.9571C34.1594 16.8834 34.2312 16.8797 34.3155 16.8688C34.626 16.8292 36.0726 16.8316 36.3276 16.912C36.4102 16.9382 36.4542 16.9741 36.5205 17.0216C36.8255 17.2385 37.8002 18.6087 38.1106 19.0082C39.6489 20.9869 41.1148 23.0332 42.6676 25.0009C42.8454 25.2257 43.1902 25.7141 43.3656 25.8791C43.4397 25.9492 43.5199 26.0198 43.6308 26.007V26.0058Z" fill="black"></path><path d="M69.3677 25.9447V17.0226C69.46 16.9142 69.5624 16.885 69.6981 16.8692C69.9934 16.8344 71.1857 16.8186 71.4479 16.8692C71.6191 16.9027 71.6167 17.061 71.6523 17.2108L71.6607 29.5092C71.6306 29.7413 71.6553 29.9343 71.3907 29.9672C71.0766 30.0062 69.6342 30.0043 69.378 29.9233C69.199 29.8673 69.0416 29.6755 68.9211 29.5324C66.7234 26.9191 64.7879 23.8308 62.6408 21.1396C62.5329 21.0037 62.3117 20.6694 62.1646 20.6444C61.9193 20.6024 62.0742 21.17 62.0772 21.2833C62.1465 24.1128 62.0417 26.9568 62.0483 29.7869C62.02 29.938 61.8723 29.9508 61.7445 29.9641C61.4178 29.9995 60.29 30.0184 59.9952 29.9641C59.8126 29.9307 59.7843 29.7333 59.7812 29.5713L59.824 17.0062C59.8391 16.9544 59.8711 16.9313 59.9181 16.9112C60.1043 16.8314 61.4654 16.8448 61.7451 16.8685C61.9193 16.8832 62.1164 16.9051 62.2586 17.0196C64.5341 19.7644 66.5516 22.8156 68.8271 25.5476C68.9759 25.7266 69.1284 26.0001 69.3677 25.9453V25.9447Z" fill="black"></path><path d="M48.7929 16.879L56.8025 16.8662C56.8965 16.8662 56.9978 16.9009 57.0412 16.9904C57.0876 17.0867 57.1015 18.5611 57.0713 18.7267C57.0508 18.8376 56.996 18.8784 56.8935 18.9125L51.1612 18.9673C50.8085 19.0861 50.9851 19.6805 50.9857 19.9423C50.9876 20.5386 50.908 21.4021 50.9803 21.9576C51.0466 22.4643 51.8893 22.2292 52.216 22.2261C53.2425 22.217 54.2793 22.2261 55.2902 22.2261C55.5891 22.2261 56.3125 22.1738 56.5457 22.2414C56.6458 22.2706 56.7489 22.4009 56.7682 22.5038C56.8164 22.7627 56.8061 23.865 56.773 24.15C56.7477 24.3699 56.644 24.3979 56.439 24.4216L51.0424 24.4502C50.9526 24.5319 50.9345 24.6403 50.9213 24.7541C50.8513 25.3772 50.8628 26.8016 50.9194 27.4375C50.9339 27.6007 50.9399 27.7956 51.1334 27.8303L57.0135 27.8577C57.1756 27.9253 57.2311 27.9868 57.2546 28.1622C57.2895 28.4247 57.2895 29.3674 57.248 29.6232C57.2281 29.7474 57.1708 29.8546 57.0707 29.9314L48.6964 29.8656L48.6289 29.5684L48.6759 17.0038L48.7923 16.8778L48.7929 16.879Z" fill="black"></path><path d="M24.3737 26.3709C24.2983 26.3472 24.2809 26.2357 24.2803 26.1608C24.2803 25.927 24.8559 24.4909 25.0355 24.36C25.3007 24.1663 26.5153 24.229 26.9077 24.237C27.1537 24.2418 27.4448 24.4452 27.54 24.0835L25.7203 19.712C25.6751 19.5932 25.5467 19.592 25.434 19.6176L21.358 29.7802C21.261 29.913 21.0916 29.9471 20.9379 29.9647C20.6154 30.0019 19.4201 30.0189 19.1296 29.9647C18.9126 29.9239 18.9704 29.6974 18.9927 29.5214L24.1983 17.1803C24.3044 17.0384 24.437 16.9032 24.6184 16.874C24.918 16.8259 26.4291 16.8295 26.6962 16.8996C26.7745 16.9203 26.8613 16.9836 26.9325 17.0262L32.3604 29.6359C32.3839 29.8033 32.3194 29.93 32.1476 29.9629C31.8348 30.0226 30.6323 30.0007 30.2803 29.9647C30.1362 29.9501 30.0042 29.8977 29.8716 29.8447L28.3032 26.511C28.2447 26.4927 28.0717 26.3709 28.05 26.3709H24.3731H24.3737Z" fill="black"></path><path d="M13.343 16.8693C13.6612 16.9691 13.0277 18.0258 12.9403 18.2286L8.03255 29.6524C7.92646 29.7949 7.79385 29.9302 7.61302 29.9594C7.35021 30.0014 5.68053 30.0008 5.47378 29.9356C5.23026 29.8589 5.16275 29.5331 5.044 29.3345L0 17.0343C0.0138638 16.9825 0.0644967 16.9222 0.112116 16.8991C0.227245 16.8425 2.17601 16.8394 2.43641 16.865C2.62025 16.8833 2.68053 16.8894 2.79144 17.0544C3.9783 20.013 5.20133 22.9594 6.36709 25.9265C6.43822 26.1074 6.52984 26.8857 6.86558 26.5246L10.6872 17.0489C10.7251 17.0081 10.9011 16.8693 10.9313 16.8693H13.3424H13.343Z" fill="black"></path><path d="M17.2939 16.8662H14.875V29.9667H17.2939V16.8662Z" fill="black"></path></svg>