<svg xmlns="http://www.w3.org/2000/svg" width="388" height="54" viewBox="0 0 388 54" fill="none"><path d="M54.9603 7.30479H66.1694C71.4426 7.30479 75.8668 9.65772 75.8668 14.6532C75.8668 19.6487 72.4425 21.7517 67.0582 21.7517H59.8843V29.366H67.0582C72.3989 29.366 75.8668 31.5999 75.8668 37.9444C75.8668 42.6146 71.5537 44.7612 66.1694 44.7612H54.9603V7.30479ZM68.5898 0H46.6992V52.4945H68.5898C78.6601 52.4945 84.5643 45.0865 84.5643 37.9405C84.5643 27.6915 77.9896 25.6124 77.9896 25.6124C77.9896 25.6124 83.9017 22.1167 83.9017 14.6493C83.8977 3.82499 74.8153 0.0119035 68.5898 0Z" fill="#144AE9"></path><path d="M217.661 0H188.284C180.646 6.59455 178.066 16.1848 178.066 26.2711C178.066 36.3573 180.642 45.9515 188.284 52.5461H217.769V22.7635H193.148V30.5722H209.627V44.4199H193.47C188.45 39.2022 187.026 32.7426 187.026 26.279C187.026 19.8154 188.45 13.3518 193.47 8.1301H217.578L217.661 0Z" fill="#144AE9"></path><path d="M260.863 44.0351H234.092L234.1 8.62608H260.863V0H225.16V52.6691H260.863V44.535" fill="#144AE9"></path><path d="M256.423 22.6719H238.738V30.5718H256.423V22.6719Z" fill="#144AE9"></path><path d="M120.224 0V33.5838C120.224 42.4955 114.566 45.7492 109.527 45.7492C104.488 45.7492 98.8334 42.4955 98.8334 33.5838V0H90.4414V33.5838C90.4414 60.569 128.624 60.569 128.624 33.5838V0H120.232" fill="#144AE9"></path><path d="M149.399 30.5682H154.656L166.258 52.4866H176.741L164.33 30.1556C167.988 30.1556 174.797 24.6998 174.797 15.3C174.797 5.90018 167.909 0 159.426 0H136.523V52.4905H145.55V7.53096H158.553C163.267 7.53096 166.568 10.8679 166.568 15.304C166.568 19.74 163.267 22.7556 158.339 22.7556H149.395V30.5682H149.399Z" fill="#144AE9"></path><path d="M278.399 30.5682H283.656L295.258 52.4866H305.741L293.33 30.1556C296.992 30.1556 303.797 24.6998 303.797 15.3C303.797 5.90018 296.909 0 288.426 0H265.523V52.4905H274.55V7.53096H287.553C292.267 7.53096 295.564 10.8679 295.564 15.304C295.564 19.74 292.263 22.7556 287.335 22.7556H278.391V30.5682H278.399Z" fill="#144AE9"></path><path d="M341.73 0H323.831C315.264 0 308.297 6.97149 308.297 15.5381C308.297 24.1046 315.264 30.3063 323.831 30.3063H328.83C332.509 30.3063 335.504 33.2743 335.504 36.9564C335.504 40.6386 332.509 44.1263 328.83 44.1263H309.555V52.4905H328.83C337.397 52.4905 344.365 45.519 344.365 36.9564C344.365 28.3938 337.397 21.4462 328.83 21.4462H323.831C320.153 21.4462 317.157 19.2202 317.157 15.542C317.157 11.8638 320.153 8.86812 323.831 8.36817H341.73V0Z" fill="#144AE9"></path><path d="M349.574 22.1247H377.921L381.65 13.943H349.578V22.1247H349.574ZM349.574 0V8.18565H384.269L387.999 0H349.574ZM349.574 36.0637H371.568L375.294 27.878H349.57V36.0637H349.574Z" fill="#144AE9"></path><path d="M38.4245 13.939H6.34854L10.0783 22.1247H38.4245V13.939ZM0 0L3.7258 8.18168H38.4206V0H0ZM38.4245 27.878H12.6971L16.4268 36.0637H38.4245V27.878Z" fill="#144AE9"></path></svg>