<svg xmlns="http://www.w3.org/2000/svg" width="117" height="32" viewBox="0 0 117 32" fill="none"><path d="M116.837 0V32H0V0H116.837ZM22.6456 7.84245H8.63364V11.6937H16.7011L8.56287 20.5514V24.1575H22.9287V20.3063H14.3658C14.3347 20.1838 14.4168 20.1663 14.4713 20.0956C14.6411 19.8757 14.9709 19.5515 15.1782 19.3246C17.6452 16.6337 20.1588 13.982 22.6449 11.3078V7.84175L22.6456 7.84245ZM38.4975 7.84245H25.0517V24.1575H38.4975V20.3063H29.5808V17.5055H37.5068V14.0044H29.5808V11.4836H38.4975V7.84245ZM54.0664 7.84245H40.6206V24.1575H54.0664V20.3063H45.1497V17.5055H53.0757V14.0044H45.1497V11.4836H54.0664V7.84245ZM62.7 7.84245H56.1894V24.1575H60.4355V12.814L63.6632 24.1618L67.1244 24.0889L70.2715 12.8833V24.1568H74.5883C74.6145 24.0812 74.5175 24.0035 74.5175 23.9818V7.94748C74.5175 7.92648 74.6074 7.89357 74.5883 7.84245H68.113L65.3531 18.1364L62.6993 7.84245H62.7ZM92.6347 24.1575L86.5154 7.91037L81.992 7.83825L75.8628 24.1575H80.4273L81.4605 21.2937L86.9301 21.2825L87.8933 24.1575H92.6347ZM98.473 7.84245H93.9085V24.1575H98.2253L98.26 14.5639L103.604 24.1575H108.204V7.84245H103.958V17.3654L98.473 7.84245Z" fill="white"></path><path d="M85.8412 17.9263H82.5859L84.2837 12.8848L85.8412 17.9263Z" fill="white"></path></svg>